<?xml version="1.0" encoding="utf-8"?>
<!-- Generator: Adobe Illustrator 25.2.0, SVG Export Plug-In . SVG Version: 6.00 Build 0)  -->
<svg version="1.1" id="Layer_1" xmlns="http://www.w3.org/2000/svg" xmlns:xlink="http://www.w3.org/1999/xlink" x="0px" y="0px"
	 viewBox="0 0 140 140" style="enable-background:new 0 0 140 140;" xml:space="preserve">
<style type="text/css">
	.st0{fill:#FF9A40;}
	.st1{fill:#E96D17;}
	.st2{fill:#FFB8A1;}
	.st3{fill:#3F2037;}
	.st4{fill:#FF8A8A;}
	.st5{opacity:0.5;}
	.st6{fill:#FFFFFF;}
</style>
<g id="Layer_2_1_">
	<g id="OBJECTS">
		<path class="st0" d="M35.5,115.8c0,0-9.2-7.7-3.8-20.4s21.4-14.5,36.7-14.5c23.4,0,51.3,8.1,32.7,34.9
			C101.1,115.8,77.9,131.2,35.5,115.8z"/>
		<path class="st1" d="M58.5,100.7c-0.3,0-0.6-0.2-0.7-0.5c-1.3-3.5-3.5-6.5-6.5-8.7c-0.3-0.2-0.4-0.6-0.2-1c0,0,0,0,0,0l0,0
			c0.2-0.3,0.6-0.4,0.9-0.2c0,0,0,0,0,0h0.1c3.2,2.4,5.7,5.6,7,9.4c0.2,0.4,0,0.8-0.4,0.9c0,0,0,0,0,0
			C58.7,100.7,58.6,100.7,58.5,100.7z"/>
		<path class="st1" d="M68.4,110.1c-0.2,0-0.5-0.1-0.6-0.3c-6-9.5-24.2-12.2-24.4-12.3c-0.4,0-0.7-0.4-0.7-0.7
			c0-0.4,0.4-0.7,0.7-0.7h0.1C44.4,96.2,62.6,99,69,109c0.2,0.3,0.2,0.7-0.1,1c0,0,0,0-0.1,0.1c0,0,0,0-0.1,0
			C68.7,110.1,68.6,110.1,68.4,110.1z"/>
		<path class="st0" d="M131.3,140H7.2c0,0,1.2-15.5,8.7-18.5c3-1.2,10-4.7,17.2-8.4c10.1-5.2,20.6-10.8,21.7-11.3H55l1,0.2
			c1.2,0.3,2.4,0.5,3.6,0.7c1.2,0.2,2.4,0.3,3.5,0.5c6.6,0.6,13.2,0.2,19.6-1.4l0,0c0,0,8.1,4.2,17.2,8.7l3.5,1.7
			c8,4,16,7.9,19.3,9.2C130.1,124.5,131.3,140,131.3,140z"/>
		<path class="st1" d="M75,120.3c-5.7,0-11.3-1.3-16.5-3.6c-3.7-1.7-7.1-3.9-10.1-6.7c-0.3-0.3-0.3-0.7,0-0.9c0.3-0.3,0.7-0.3,0.9,0
			c2.9,2.6,6.2,4.8,9.8,6.4c8.1,3.7,17.2,4.5,25.7,2.2c0.3-0.1,0.7,0.1,0.8,0.5l0,0c0.1,0.3-0.1,0.7-0.5,0.8
			C81.9,119.8,78.5,120.3,75,120.3z"/>
		<path class="st1" d="M71.8,126.6c-2.4,0-4.9-0.3-7.2-0.8c-0.3-0.1-0.6-0.5-0.5-0.8c0.1-0.3,0.4-0.5,0.7-0.5c12.9,2.7,21-3,21.1-3
			c0.3-0.2,0.7-0.2,0.9,0.1l0,0c0.2,0.3,0.1,0.7-0.1,0.9c0,0,0,0,0,0l0,0C86.4,122.8,81,126.6,71.8,126.6z"/>
		<path class="st2" d="M83.3,105c0,0-2.4,7.7-13.6,7.7c-13,0-16.1-7-16.1-7c1-2.7,1.8-5.5,2.4-8.3l0,0c0.7-3.4,1.1-6.9,1-10.3
			l22.9-0.9c0.2,1.9,0.6,4.2,0.9,6.5C81.9,98.8,83.3,105,83.3,105z"/>
		<path class="st3" d="M80.9,92.7c-3.5,2.5-11.3,6.1-24.9,4.7c0.7-3.4,1.1-6.9,1-10.3l22.9-0.9C80.2,88.1,80.5,90.4,80.9,92.7z"/>
		<path class="st2" d="M48.3,57.1c0,0-7.1-9.7-12.6-3.9s5.1,25.6,14.8,21.2L48.3,57.1z"/>
		<path class="st4" d="M44.9,68.6c-0.2,0-0.5-0.2-0.5-0.4c-0.8-4.3-3-8.1-6.3-10.9c-0.2-0.2-0.3-0.5-0.1-0.7
			c0.2-0.2,0.5-0.3,0.7-0.1l0,0c3.6,2.9,5.9,7,6.7,11.5C45.4,68.3,45.2,68.5,44.9,68.6L44.9,68.6z"/>
		<path class="st4" d="M43.4,63.8c-0.2,0-0.3-0.1-0.4-0.2c-0.7-1-2.8-1.2-3.6-1.1c-0.3,0-0.5-0.2-0.5-0.4c0,0,0,0,0,0l0,0
			c0-0.3,0.2-0.5,0.5-0.5c0.1,0,3.3-0.2,4.5,1.5c0.2,0.2,0.1,0.5-0.1,0.7c0,0,0,0,0,0l0,0C43.6,63.7,43.5,63.8,43.4,63.8z"/>
		<path class="st2" d="M91.5,57.1c0,0,7.1-9.7,12.6-3.9c5.5,5.7-5.1,25.6-14.8,21.2L91.5,57.1z"/>
		<path class="st4" d="M94.9,68.6L94.9,68.6c-0.3,0-0.5-0.3-0.5-0.5l0,0c0.8-4.5,3.1-8.6,6.7-11.5c0.2-0.2,0.5-0.1,0.7,0.1
			c0.2,0.2,0.1,0.5-0.1,0.7l0,0c-3.3,2.8-5.6,6.6-6.3,10.9C95.3,68.4,95.1,68.6,94.9,68.6z"/>
		<path class="st4" d="M96.4,63.8c-0.1,0-0.2,0-0.3-0.1c-0.2-0.1-0.3-0.4-0.1-0.6c0,0,0,0,0,0l0,0c1.2-1.7,4.3-1.5,4.5-1.5
			c0.3,0,0.5,0.3,0.5,0.5s-0.3,0.5-0.5,0.5l0,0c-0.8,0-2.9,0.1-3.6,1.1C96.7,63.7,96.5,63.8,96.4,63.8z"/>
		<path class="st2" d="M75.9,29C56,24.2,38.1,42.2,42.5,62c3.2,14.1,10.1,31.8,27.1,32.2c17.7,0.4,24.9-18.9,27.4-33.6
			c2.3-13.4-5.5-26.5-18.4-30.8C77.7,29.5,76.8,29.2,75.9,29z"/>
		<path class="st4" d="M71.1,74.2c-1,0-1.9-0.3-2.8-0.7c-0.3-0.1-0.5-0.4-0.4-0.7l1.4-10.9c0-0.4,0.4-0.7,0.8-0.6
			c0.4,0,0.7,0.4,0.6,0.8l-1.3,10.4c1.1,0.5,2.3,0.5,3.4-0.1c0.3-0.2,0.7-0.2,1,0.1s0.2,0.7-0.1,1l-0.1,0.1
			C72.8,73.9,71.9,74.2,71.1,74.2z"/>
		<path class="st4" d="M69.8,81.4c-2.5,0-4.9-0.6-7.1-1.7c-0.3-0.2-0.5-0.6-0.3-0.9l0,0c0.2-0.3,0.6-0.5,0.9-0.3c0,0,0,0,0,0l0,0
			c0.3,0.2,8.1,4.4,14.8-1.8c0.3-0.3,0.7-0.3,1,0c0,0,0,0,0,0l0,0c0.3,0.3,0.3,0.7,0,1c0,0,0,0,0,0l0,0
			C76.6,80.1,73.3,81.4,69.8,81.4z"/>
		<path class="st4" d="M70.9,85.4c-1,0-2-0.1-2.9-0.4c-0.4-0.1-0.6-0.5-0.5-0.9c0.1-0.4,0.5-0.6,0.9-0.5l0,0c0,0,3.1,0.9,5.3-0.3
			c0.3-0.2,0.8-0.1,1,0.2c0,0,0,0,0,0l0,0c0.2,0.3,0.1,0.8-0.2,1c0,0,0,0,0,0l0,0C73.4,85.1,72.2,85.4,70.9,85.4z"/>
		<path class="st3" d="M56.1,54.3c1.8-1,3.8-1.7,5.8-2.1c1-0.1,1.7-1,1.6-2c0-0.1,0-0.2-0.1-0.4l-0.1-0.2c-0.3-0.8-1.1-1.3-1.9-1.2
			c-1.9,0.2-5.3,0.9-7.5,3c-0.5,0.5-0.6,1.2-0.4,1.8l0,0c0.3,0.9,1.3,1.4,2.2,1.2C55.9,54.4,56,54.3,56.1,54.3z"/>
		<path class="st3" d="M85.1,54.3c-1.8-1-3.8-1.7-5.8-2.1c-1-0.1-1.7-1-1.6-2c0-0.1,0-0.2,0.1-0.4l0.1-0.2c0.3-0.8,1.1-1.3,1.9-1.2
			c1.9,0.2,5.3,0.9,7.5,3c0.5,0.5,0.6,1.2,0.4,1.8l0,0c-0.3,1-1.3,1.5-2.2,1.2C85.3,54.4,85.2,54.4,85.1,54.3z"/>
		<g class="st5">
			<path class="st4" d="M61.3,66.9c0,1.7-3.2,3.1-7.1,3.1s-7.1-1.4-7.1-3.1s3.2-3.1,7.1-3.1S61.3,65.1,61.3,66.9z"/>
		</g>
		<g class="st5">
			<path class="st4" d="M94.5,66.9c0,1.7-3.2,3.1-7.1,3.1c-3.9,0-7.1-1.4-7.1-3.1s3.2-3.1,7.1-3.1C91.4,63.8,94.5,65.1,94.5,66.9z"
				/>
		</g>
		<path class="st3" d="M43.3,65.1c0,0-3.7-20.5-2.6-25.2c1.1-4.7,3.6-3.8,3.6-3.8S24.2,19.6,34.2,10.2c7.2-6.8,15.6,7.7,15.6,7.7
			S45.6,3.7,51.5,1.8c7.4-2.4,10.6,14.6,10.6,14.6S61.5,3.7,67.4,3.9c8.2,0.3,3.6,9.8,12.5,13.6s22.4,5.6,17.5,20.5
			c0,0,6.6-0.3-1.6,26.4l0,0c-2.1-2.9-3.2-6.5-3-10.1c0.2-2.6,0.1-5.3-0.4-7.9c0,0-5.1-3.6-4.9-8.8c0,0-18,10.7-34.5,1.2
			c0,0,1,6.1-4.2,7.1c-1.2,3.1-2,6.4-2.3,9.7c-0.3,3.3-1.4,6.5-3.1,9.3L43.3,65.1z"/>
		<path class="st3" d="M95.8,28.6c0,0,2.8-9.7,7.4-7.2c3.3,1.8-4.4,9.1-4.4,9.1s6.4-3.5,9.6-1c3.2,2.5-5.2,5.3-10.1,4.5
			C93.5,33.2,95.8,28.6,95.8,28.6z"/>
		<path class="st3" d="M61.8,59.6c0,1.9-0.7,3.4-1.6,3.5c-0.9,0-1.6-1.5-1.7-3.4c0-1.9,0.7-3.4,1.6-3.5C61,56.2,61.7,57.7,61.8,59.6
			z"/>
		<path class="st3" d="M78.7,59.6c0,1.9,0.7,3.4,1.6,3.5s1.6-1.5,1.7-3.4c0-1.9-0.7-3.4-1.6-3.5C79.5,56.2,78.7,57.7,78.7,59.6z"/>
		<path class="st6" d="M51.2,120.5V140h-1.4v-19.5c0-0.1,0.1-0.3,0.1-0.4c0.2-0.3,0.7-0.4,1-0.1c0.1,0.1,0.2,0.3,0.3,0.4
			C51.1,120.4,51.1,120.5,51.2,120.5z"/>
		<path class="st6" d="M90,120.5V140h-1.4v-19.5c0-0.4,0.3-0.7,0.7-0.7c0.3,0,0.5,0.2,0.6,0.5C90,120.4,90,120.5,90,120.5z"/>
	</g>
</g>
</svg>
